Coordinates
version=1
nRows=8
nColumns=63
inDegrees=yes

Units are S.I. units (second, meters, Newtons, ...)
If the header above contains a line with 'inDegrees', this indicates whether rotational values are in degrees (yes) or radians (no).

endheader
time	pelvis_tilt	pelvis_list	pelvis_rotation	pelvis_tx	pelvis_ty	pelvis_tz	hip_flexion_r	hip_adduction_r	hip_rotation_r	knee_angle_r	knee_angle_r_beta	ankle_angle_r	subtalar_angle_r	mtp_angle_r	hip_flexion_l	hip_adduction_l	hip_rotation_l	knee_angle_l	knee_angle_l_beta	ankle_angle_l	subtalar_angle_l	mtp_angle_l	L5_S1_Flex_Ext	L5_S1_Lat_Bending	L5_S1_axial_rotation	L4_L5_Flex_Ext	L4_L5_Lat_Bending	L4_L5_axial_rotation	L3_L4_Flex_Ext	L3_L4_Lat_Bending	L3_L4_axial_rotation	L2_L3_Flex_Ext	L2_L3_Lat_Bending	L2_L3_axial_rotation	L1_L2_Flex_Ext	L1_L2_Lat_Bending	L1_L2_axial_rotation	L1_T12_Flex_Ext	L1_T12_Lat_Bending	L1_T12_axial_rotation	Abs_r3	Abs_r2	Abs_r1	Abs_t1	Abs_t2	neck_flexion	neck_bending	neck_rotation	arm_flex_r	arm_add_r	arm_rot_r	elbow_flex_r	pro_sup_r	wrist_flex_r	wrist_dev_r	arm_flex_l	arm_add_l	arm_rot_l	elbow_flex_l	pro_sup_l	wrist_flex_l	wrist_dev_l
1.525424	-1.454201	-2.741316	76.503066	0.247171	1.009619	0.407468	11.897691	-4.108419	-3.347329	22.154618	0.386671	41.545105	8.304412	0.000000	10.460784	-0.426081	-5.128345	26.119932	0.455879	44.320726	7.525859	0.000000	-0.395978	0.601585	-2.608760	-0.735371	0.800108	-2.771808	-0.650553	1.462695	-2.771808	-0.452564	1.462695	-2.282665	-0.367705	1.226753	-2.119618	-0.226262	0.931856	-1.956570	-2.828434	6.805253	-14.509141	0.000000	0.000000	15.000682	0.831659	11.034560	-194.847903	-96.915490	-181.663039	11.938567	9.168233	-15.293699	-1.727326	-2.915600	-77.886009	58.184273	0.308305	3.177666	-27.859803	-14.036346
1.542373	-1.625038	-2.723875	76.345004	0.247207	1.009234	0.407424	12.025853	-4.320992	-3.358913	22.312293	0.389423	41.943893	8.731051	0.000000	10.806502	-0.316861	-5.500173	26.749780	0.466872	44.778159	7.504310	0.000000	-0.380650	0.586785	-2.594558	-0.706905	0.780424	-2.756717	-0.625370	1.426708	-2.756717	-0.435045	1.426708	-2.270238	-0.353472	1.196571	-2.108078	-0.217503	0.908929	-1.945918	-2.718946	6.637825	-14.430151	0.000000	0.000000	14.748332	0.810582	10.494108	-196.956197	-99.750178	-193.997240	16.609955	16.360575	-12.900300	5.005751	1.388635	-77.233493	66.769584	0.304301	3.625497	-22.812447	-13.520295
1.559322	-1.815569	-2.761962	76.192472	0.247525	1.009212	0.406918	12.106720	-4.500517	-3.256956	22.309612	0.389376	42.162721	9.003455	0.000000	10.989688	-0.175612	-5.741434	26.999535	0.471231	44.989138	7.361827	0.000000	-0.358906	0.575020	-2.618197	-0.666524	0.764776	-2.781834	-0.589647	1.398103	-2.781834	-0.410194	1.398103	-2.290922	-0.333280	1.172581	-2.127285	-0.205079	0.890706	-1.963648	-2.563630	6.504740	-14.561626	0.000000	0.000000	14.508235	0.743562	10.202907	-198.604050	-102.230182	-207.078579	21.636983	24.884378	-10.329909	11.524974	3.136880	-76.575151	72.205231	0.298153	3.983656	-18.393942	-13.187507
1.576271	-2.019614	-2.859500	76.051642	0.248095	1.009547	0.405987	12.145942	-4.640156	-3.045383	22.152373	0.386632	42.183819	9.098964	0.000000	11.023146	-0.013045	-5.895238	26.883526	0.469206	44.967041	7.176914	0.000000	-0.332393	0.565834	-2.684346	-0.617286	0.752559	-2.852117	-0.546088	1.375768	-2.852117	-0.379891	1.375768	-2.348803	-0.308660	1.153848	-2.181031	-0.189929	0.876476	-2.013259	-2.374247	6.400823	-14.929526	0.000000	0.000000	14.259139	0.660526	10.146716	-200.160128	-104.336929	-220.523444	26.733717	33.993655	-7.865018	17.262101	2.068584	-75.911144	73.998832	0.299016	4.252808	-15.340069	-13.032681
1.593220	-2.220600	-3.041798	75.933169	0.248822	1.010168	0.404616	12.169719	-4.731592	-2.779626	21.854417	0.381432	42.018515	9.060526	0.000000	10.948029	0.151463	-5.988564	26.432537	0.461335	44.742977	6.999136	0.000000	-0.300337	0.566741	-2.781109	-0.557757	0.753766	-2.954928	-0.493424	1.377974	-2.954928	-0.343256	1.377974	-2.433470	-0.278893	1.155698	-2.259651	-0.171613	0.877882	-2.085832	-2.145280	6.411088	-15.467693	0.000000	0.000000	14.054351	0.432195	10.397377	-203.001844	-105.942479	-235.282157	31.794622	43.217589	-5.485750	21.583085	-1.607633	-75.331933	72.365025	0.293861	4.405150	-13.845947	-13.068543
1.610169	-2.446963	-3.297347	75.826810	0.249761	1.011008	0.402944	12.197524	-4.799511	-2.439482	21.451899	0.374406	41.694229	8.860517	0.000000	10.799479	0.331029	-6.086058	25.714154	0.448797	44.356497	6.899069	0.000000	-0.264967	0.572645	-2.919886	-0.492069	0.761618	-3.102378	-0.435314	1.392330	-3.102378	-0.302830	1.392330	-2.554900	-0.246048	1.167738	-2.372407	-0.151402	0.887028	-2.189914	-1.892630	6.477878	-16.239527	0.000000	0.000000	13.897114	0.132620	11.058265	-206.121907	-106.841547	-249.988043	36.795801	51.891825	-3.414186	24.419626	-7.924088	-74.721330	67.135838	0.287959	4.445533	-13.916524	-13.451032
1.627119	-2.716350	-3.603807	75.721189	0.250929	1.012001	0.401115	12.235725	-4.868327	-2.030773	20.985649	0.366269	41.249477	8.500841	0.000000	10.606699	0.532206	-6.244419	24.810332	0.433022	43.869061	6.939926	0.000000	-0.228809	0.579365	-3.115418	-0.424921	0.770556	-3.310132	-0.375910	1.408669	-3.310132	-0.261506	1.408669	-2.725991	-0.212472	1.181442	-2.531277	-0.130741	0.897437	-2.336564	-1.634360	6.553895	-17.327022	0.000000	0.000000	13.758236	-0.181870	12.230537	-207.984778	-107.064824	-262.955484	41.637192	59.580377	-1.630474	25.857515	-16.631293	-73.959890	58.638920	0.280212	4.374747	-15.578224	-14.145883
1.644068	-3.117143	-3.888934	75.586453	0.252523	1.013063	0.399409	12.301946	-5.027626	-1.499134	20.540504	0.358499	40.767454	7.980461	0.000000	10.369785	0.832176	-6.545771	23.784272	0.415114	43.309696	7.178293	0.000000	-0.195306	0.566009	-3.354657	-0.362704	0.752793	-3.564324	-0.320869	1.376195	-3.564324	-0.223216	1.376195	-2.935325	-0.181362	1.154207	-2.725659	-0.111598	0.876749	-2.515993	-1.395054	6.402812	-18.657599	0.000000	0.000000	13.612067	-0.404585	13.639968	-208.405570	-106.807685	-273.863665	46.238059	65.869356	0.019441	25.992244	-27.432276	-73.020961	47.264772	0.268569	4.193479	-18.844002	-15.073125
